<svg width="99" height="24" viewBox="0 0 99 24" fill="none" xmlns="http://www.w3.org/2000/svg">
<rect width="99" height="24" rx="12" fill="url(#paint0_radial_6_55)" fill-opacity="0.87"/>
<path d="M3.72 11.852V6.06H17.8V11.852H15.208V8.14H11.72V17.5H9.16V8.14H6.312V11.852H3.72ZM21.5876 17.5C20.7236 17.5 20.0623 17.2813 19.6036 16.844C19.145 16.4067 18.9156 15.7827 18.9156 14.972C18.9156 14.172 19.145 13.5533 19.6036 13.116C20.0623 12.6787 20.7236 12.46 21.5876 12.46H27.7316V12.076C27.7316 11.4253 27.4116 11.1 26.7716 11.1H19.9876V9.26H27.3796C28.3503 9.26 29.0383 9.484 29.4436 9.932C29.849 10.3693 30.0516 10.988 30.0516 11.788V17.5H21.5876ZM22.0036 15.66H27.7316V14.3H22.0036C21.801 14.3 21.641 14.364 21.5236 14.492C21.417 14.6093 21.3636 14.7693 21.3636 14.972C21.3636 15.1747 21.417 15.34 21.5236 15.468C21.641 15.596 21.801 15.66 22.0036 15.66ZM31.5455 17.58V15.74H39.3855C39.8335 15.74 40.0575 15.4893 40.0575 14.988C40.0575 14.4973 39.8335 14.252 39.3855 14.252H34.3135C33.3642 14.252 32.6442 14.0387 32.1535 13.612C31.6628 13.1747 31.4175 12.5507 31.4175 11.74C31.4175 10.9187 31.6628 10.2893 32.1535 9.852C32.6548 9.404 33.3748 9.18 34.3135 9.18H41.6095V11.02H34.4255C33.9668 11.02 33.7375 11.244 33.7375 11.692C33.7375 11.916 33.8015 12.092 33.9295 12.22C34.0575 12.348 34.2228 12.412 34.4255 12.412H39.8015C40.6335 12.412 41.2682 12.6307 41.7055 13.068C42.1535 13.4947 42.3775 14.1187 42.3775 14.94C42.3775 15.772 42.1535 16.4227 41.7055 16.892C41.2575 17.3507 40.6228 17.58 39.8015 17.58H31.5455ZM43.7394 17.5V6.06H46.0594V9.26H51.5954C52.534 9.26 53.2487 9.484 53.7394 9.932C54.2407 10.3693 54.4914 10.9987 54.4914 11.82C54.4914 13.164 53.8514 13.964 52.5714 14.22L54.5234 17.5H51.9154L50.0274 14.316H46.0594V17.5H43.7394ZM51.4834 11.084H46.0594V12.492H51.4834C51.6967 12.492 51.862 12.428 51.9794 12.3C52.1074 12.172 52.1714 11.996 52.1714 11.772C52.1714 11.3133 51.942 11.084 51.4834 11.084ZM69.8976 17.5L66.4256 9.26H68.8576L71.5456 15.644H72.3456L75.0336 9.26H77.4656L73.9936 17.5H69.8976ZM78.505 17.5V9.26H80.825V17.5H78.505ZM78.489 7.9V6.092H80.841V7.9H78.489ZM84.7751 17.5C83.9111 17.5 83.2498 17.2813 82.7911 16.844C82.3325 16.4067 82.1031 15.7827 82.1031 14.972C82.1031 14.172 82.3325 13.5533 82.7911 13.116C83.2498 12.6787 83.9111 12.46 84.7751 12.46H90.9191V12.076C90.9191 11.4253 90.5991 11.1 89.9591 11.1H83.1751V9.26H90.5671C91.5378 9.26 92.2258 9.484 92.6311 9.932C93.0365 10.3693 93.2391 10.988 93.2391 11.788V17.5H84.7751ZM85.1911 15.66H90.9191V14.3H85.1911C84.9885 14.3 84.8285 14.364 84.7111 14.492C84.6045 14.6093 84.5511 14.7693 84.5511 14.972C84.5511 15.1747 84.6045 15.34 84.7111 15.468C84.8285 15.596 84.9885 15.66 85.1911 15.66Z" fill="#EDEDED"/>
<g clip-path="url(#clip0_6_55)">
<rect width="12" height="12" transform="translate(55 6)" fill="#011B85"/>
<path d="M61.0001 9.56552C60.6803 9.56552 60.3638 9.62849 60.0684 9.75084C59.773 9.87318 59.5047 10.0525 59.2786 10.2786C59.0525 10.5046 58.8732 10.773 58.7509 11.0684C58.6285 11.3637 58.5656 11.6803 58.5656 12C58.5656 12.3197 58.6285 12.6363 58.7509 12.9317C58.8732 13.227 59.0525 13.4954 59.2786 13.7215C59.5047 13.9475 59.773 14.1269 60.0684 14.2492C60.3638 14.3716 60.6803 14.4345 61.0001 14.4345C61.6457 14.4345 62.2649 14.178 62.7215 13.7215C63.1781 13.2649 63.4346 12.6457 63.4346 12C63.4346 11.3544 63.1781 10.7351 62.7215 10.2786C62.2649 9.82201 61.6457 9.56552 61.0001 9.56552ZM59.3156 12C59.3156 11.5533 59.493 11.1248 59.8089 10.8089C60.1248 10.493 60.5533 10.3155 61.0001 10.3155C61.4468 10.3155 61.8753 10.493 62.1912 10.8089C62.5071 11.1248 62.6846 11.5533 62.6846 12C62.6846 12.4468 62.5071 12.8752 62.1912 13.1911C61.8753 13.507 61.4468 13.6845 61.0001 13.6845C60.5533 13.6845 60.1248 13.507 59.8089 13.1911C59.493 12.8752 59.3156 12.4468 59.3156 12Z" fill="white"/>
<path d="M62.3474 7.00758C61.9521 5.66508 60.0486 5.66508 59.6534 7.00758L59.5829 7.24683C59.5553 7.34054 59.507 7.42689 59.4417 7.49955C59.3764 7.5722 59.2957 7.62932 59.2054 7.66672C59.1152 7.70411 59.0177 7.72084 58.9201 7.71567C58.8226 7.71049 58.7274 7.68356 58.6416 7.63683L58.4226 7.51683C57.1926 6.84783 55.8479 8.19333 56.5176 9.42258L56.6369 9.64158C56.6836 9.72737 56.7105 9.82254 56.7157 9.92009C56.7209 10.0177 56.7041 10.1151 56.6667 10.2054C56.6294 10.2956 56.5722 10.3764 56.4996 10.4417C56.4269 10.507 56.3406 10.5552 56.2469 10.5828L56.0076 10.6533C54.6651 11.0486 54.6651 12.9521 56.0076 13.3473L56.2469 13.4178C56.3406 13.4454 56.4269 13.4937 56.4996 13.559C56.5722 13.6243 56.6294 13.705 56.6667 13.7953C56.7041 13.8855 56.7209 13.983 56.7157 14.0806C56.7105 14.1781 56.6836 14.2733 56.6369 14.3591L56.5169 14.5781C55.8479 15.8081 57.1926 17.1536 58.4226 16.4831L58.6416 16.3638C58.7274 16.3171 58.8226 16.2902 58.9201 16.285C59.0177 16.2798 59.1152 16.2965 59.2054 16.3339C59.2957 16.3713 59.3764 16.4285 59.4417 16.5011C59.507 16.5738 59.5553 16.6601 59.5829 16.7538L59.6534 16.9931C60.0486 18.3356 61.9521 18.3356 62.3474 16.9931L62.4179 16.7538C62.4455 16.6601 62.4937 16.5738 62.559 16.5011C62.6243 16.4285 62.705 16.3713 62.7953 16.3339C62.8856 16.2965 62.983 16.2798 63.0806 16.285C63.1781 16.2902 63.2733 16.3171 63.3591 16.3638L63.5781 16.4838C64.8081 17.1536 66.1536 15.8073 65.4831 14.5781L65.3639 14.3591C65.3171 14.2733 65.2902 14.1781 65.285 14.0806C65.2798 13.983 65.2966 13.8855 65.334 13.7953C65.3714 13.705 65.4285 13.6243 65.5011 13.559C65.5738 13.4937 65.6601 13.4454 65.7539 13.4178L65.9931 13.3473C67.3356 12.9521 67.3356 11.0486 65.9931 10.6533L65.7539 10.5828C65.6601 10.5552 65.5738 10.507 65.5011 10.4417C65.4285 10.3764 65.3714 10.2956 65.334 10.2054C65.2966 10.1151 65.2798 10.0177 65.285 9.92009C65.2902 9.82254 65.3171 9.72737 65.3639 9.64158L65.4839 9.42258C66.1536 8.19258 64.8074 6.84783 63.5781 7.51758L63.3591 7.63683C63.2733 7.68356 63.1781 7.71049 63.0806 7.71567C62.983 7.72084 62.8856 7.70411 62.7953 7.66672C62.705 7.62932 62.6243 7.5722 62.559 7.49955C62.4937 7.42689 62.4455 7.34054 62.4179 7.24683L62.3474 7.00758ZM60.3726 7.21983C60.5571 6.59358 61.4436 6.59358 61.6281 7.21983L61.6986 7.45908C61.7579 7.66014 61.8614 7.84539 62.0016 8.00125C62.1417 8.15711 62.315 8.27962 62.5087 8.35981C62.7023 8.44 62.9115 8.47583 63.1208 8.46467C63.3301 8.45351 63.5343 8.39565 63.7184 8.29533L63.9366 8.17533C64.5096 7.86408 65.1366 8.49033 64.8246 9.06408L64.7054 9.28308C64.6052 9.46715 64.5475 9.6713 64.5364 9.88057C64.5254 10.0898 64.5613 10.2989 64.6416 10.4925C64.7218 10.6861 64.8444 10.8593 65.0002 10.9994C65.1561 11.1394 65.3413 11.2429 65.5424 11.3021L65.7809 11.3726C66.4071 11.5571 66.4071 12.4436 65.7809 12.6281L65.5416 12.6986C65.3405 12.7578 65.1553 12.8614 64.9994 13.0015C64.8436 13.1417 64.7211 13.315 64.6409 13.5086C64.5607 13.7023 64.5249 13.9115 64.536 14.1208C64.5472 14.3301 64.605 14.5343 64.7054 14.7183L64.8254 14.9366C65.1366 15.5096 64.5104 16.1366 63.9366 15.8246L63.7184 15.7053C63.5343 15.605 63.33 15.5472 63.1207 15.5361C62.9113 15.525 62.7021 15.5609 62.5084 15.6411C62.3148 15.7214 62.1415 15.844 62.0014 15.9999C61.8612 16.1559 61.7578 16.3412 61.6986 16.5423L61.6281 16.7808C61.4436 17.4071 60.5571 17.4071 60.3726 16.7808L60.3021 16.5416C60.2428 16.3406 60.1393 16.1555 59.9992 15.9997C59.8591 15.8439 59.6859 15.7214 59.4923 15.6413C59.2987 15.5611 59.0897 15.5252 58.8805 15.5363C58.6712 15.5474 58.4671 15.6051 58.2831 15.7053L58.0641 15.8253C57.4911 16.1366 56.8641 15.5103 57.1761 14.9366L57.2954 14.7183C57.3958 14.5342 57.4538 14.33 57.465 14.1206C57.4763 13.9112 57.4405 13.7019 57.3603 13.5082C57.2801 13.3144 57.1575 13.141 57.0016 13.0008C56.8456 12.8606 56.6603 12.7571 56.4591 12.6978L56.2199 12.6273C55.5936 12.4428 55.5936 11.5563 56.2199 11.3718L56.4591 11.3013C56.66 11.242 56.845 11.1385 57.0007 10.9985C57.1564 10.8584 57.2788 10.6853 57.359 10.4918C57.4392 10.2983 57.4751 10.0894 57.464 9.88024C57.453 9.6711 57.3954 9.46707 57.2954 9.28308L57.1754 9.06408C56.8641 8.49108 57.4904 7.86408 58.0641 8.17608L58.2831 8.29533C58.4671 8.39551 58.6712 8.45326 58.8805 8.46434C59.0897 8.47543 59.2987 8.43957 59.4923 8.35939C59.6859 8.27921 59.8591 8.15675 59.9992 8.00097C60.1393 7.84519 60.2428 7.66004 60.3021 7.45908L60.3726 7.21983Z" fill="white"/>
</g>
<defs>
<radialGradient id="paint0_radial_6_55" cx="0" cy="0" r="1" gradientUnits="userSpaceOnUse" gradientTransform="translate(61.5 13) rotate(-149.349) scale(15.6924)">
<stop stop-color="#000D43"/>
<stop offset="1" stop-color="#0031F5"/>
</radialGradient>
<clipPath id="clip0_6_55">
<rect width="12" height="12" fill="white" transform="translate(55 6)"/>
</clipPath>
</defs>
</svg>
