<svg width="265" height="65" viewBox="0 0 265 65" fill="none" xmlns="http://www.w3.org/2000/svg">
<rect width="265" height="64.2424" rx="32.1212" fill="url(#paint0_radial_135_683)" fill-opacity="0.87"/>
<path d="M9.95755 31.5028V15.999H47.6464V31.5028H40.7083V21.5667H31.3717V46.6212H24.5192V21.5667H16.8957V31.5028H9.95755ZM57.785 46.6212C55.4723 46.6212 53.7021 46.0359 52.4743 44.8653C51.2466 43.6946 50.6327 42.0243 50.6327 39.8543C50.6327 37.7129 51.2466 36.0569 52.4743 34.8863C53.7021 33.7156 55.4723 33.1303 57.785 33.1303H74.2311V32.1024C74.2311 30.3607 73.3745 29.4899 71.6614 29.4899H53.5022V24.5646H73.2889C75.8871 24.5646 77.7287 25.1642 78.8137 26.3634C79.8987 27.5341 80.4412 29.1901 80.4412 31.3315V46.6212H57.785ZM58.8986 41.696H74.2311V38.0556H58.8986C58.3561 38.0556 57.9278 38.2269 57.6137 38.5695C57.3282 38.8836 57.1854 39.3119 57.1854 39.8543C57.1854 40.3968 57.3282 40.8394 57.6137 41.182C57.9278 41.5246 58.3561 41.696 58.8986 41.696ZM84.44 46.8354V41.9101H105.426C106.625 41.9101 107.225 41.2391 107.225 39.8972C107.225 38.5838 106.625 37.9271 105.426 37.9271H91.8493C89.3081 37.9271 87.3808 37.356 86.0674 36.2139C84.754 35.0433 84.0973 33.373 84.0973 31.203C84.0973 29.0045 84.754 27.3199 86.0674 26.1493C87.4094 24.9501 89.3367 24.3505 91.8493 24.3505H111.379V29.2758H92.1491C90.9213 29.2758 90.3074 29.8754 90.3074 31.0745C90.3074 31.6741 90.4787 32.1453 90.8214 32.4879C91.164 32.8305 91.6066 33.0018 92.1491 33.0018H106.539C108.766 33.0018 110.465 33.5871 111.636 34.7578C112.835 35.8999 113.435 37.5702 113.435 39.7687C113.435 41.9958 112.835 43.7374 111.636 44.9937C110.437 46.2215 108.738 46.8354 106.539 46.8354H84.44ZM117.08 46.6212V15.999H123.29V24.5646H138.109C140.621 24.5646 142.534 25.1642 143.848 26.3634C145.19 27.5341 145.861 29.2187 145.861 31.4172C145.861 35.0147 144.148 37.1562 140.721 37.8414L145.946 46.6212H138.965L133.912 38.0984H123.29V46.6212H117.08ZM137.809 29.4471H123.29V33.216H137.809C138.38 33.216 138.823 33.0446 139.137 32.702C139.479 32.3594 139.651 31.8883 139.651 31.2887C139.651 30.0609 139.037 29.4471 137.809 29.4471ZM187.1 46.6212L177.806 24.5646H184.316L191.511 41.6531H193.652L200.848 24.5646H207.357L198.064 46.6212H187.1ZM210.14 46.6212V24.5646H216.35V46.6212H210.14ZM210.097 20.9242V16.0846H216.393V20.9242H210.097ZM226.923 46.6212C224.611 46.6212 222.84 46.0359 221.613 44.8653C220.385 43.6946 219.771 42.0243 219.771 39.8543C219.771 37.7129 220.385 36.0569 221.613 34.8863C222.84 33.7156 224.611 33.1303 226.923 33.1303H243.369V32.1024C243.369 30.3607 242.513 29.4899 240.8 29.4899H222.64V24.5646H242.427C245.025 24.5646 246.867 25.1642 247.952 26.3634C249.037 27.5341 249.579 29.1901 249.579 31.3315V46.6212H226.923ZM228.037 41.696H243.369V38.0556H228.037C227.494 38.0556 227.066 38.2269 226.752 38.5695C226.466 38.8836 226.324 39.3119 226.324 39.8543C226.324 40.3968 226.466 40.8394 226.752 41.182C227.066 41.5246 227.494 41.696 228.037 41.696Z" fill="#EDEDED"/>
<g clip-path="url(#clip0_135_683)">
<rect width="32.1212" height="32.1212" transform="translate(147.222 16.0606)" fill="#0D30BD"/>
<path d="M163.283 25.6046C162.427 25.6046 161.58 25.7732 160.789 26.1007C159.998 26.4282 159.28 26.9082 158.675 27.5133C158.07 28.1184 157.59 28.8368 157.262 29.6274C156.935 30.4181 156.766 31.2655 156.766 32.1212C156.766 32.977 156.935 33.8244 157.262 34.615C157.59 35.4057 158.07 36.124 158.675 36.7292C159.28 37.3343 159.998 37.8143 160.789 38.1418C161.58 38.4693 162.427 38.6378 163.283 38.6378C165.011 38.6378 166.669 37.9513 167.891 36.7292C169.113 35.5071 169.799 33.8495 169.799 32.1212C169.799 30.3929 169.113 28.7354 167.891 27.5133C166.669 26.2912 165.011 25.6046 163.283 25.6046ZM158.774 32.1212C158.774 30.9254 159.249 29.7785 160.094 28.9329C160.94 28.0873 162.087 27.6122 163.283 27.6122C164.479 27.6122 165.626 28.0873 166.471 28.9329C167.317 29.7785 167.792 30.9254 167.792 32.1212C167.792 33.3171 167.317 34.464 166.471 35.3096C165.626 36.1552 164.479 36.6303 163.283 36.6303C162.087 36.6303 160.94 36.1552 160.094 35.3096C159.249 34.464 158.774 33.3171 158.774 32.1212Z" fill="white"/>
<path d="M166.889 18.7574C165.831 15.1638 160.736 15.1638 159.678 18.7574L159.489 19.3978C159.415 19.6486 159.286 19.8798 159.111 20.0743C158.937 20.2687 158.72 20.4216 158.479 20.5217C158.237 20.6218 157.976 20.6666 157.715 20.6528C157.454 20.6389 157.199 20.5668 156.97 20.4417L156.383 20.1205C153.091 18.3298 149.491 21.9313 151.284 25.2218L151.603 25.808C151.728 26.0376 151.801 26.2924 151.814 26.5535C151.828 26.8146 151.784 27.0756 151.683 27.3171C151.583 27.5587 151.43 27.7749 151.236 27.9497C151.041 28.1245 150.81 28.2536 150.559 28.3275L149.919 28.5162C146.325 29.5742 146.325 34.6694 149.919 35.7274L150.559 35.9161C150.81 35.99 151.041 36.1191 151.236 36.2939C151.43 36.4687 151.583 36.6849 151.683 36.9264C151.784 37.168 151.828 37.429 151.814 37.6901C151.801 37.9512 151.728 38.206 151.603 38.4356L151.282 39.0218C149.491 42.3143 153.091 45.9159 156.383 44.1211L156.97 43.8019C157.199 43.6768 157.454 43.6047 157.715 43.5908C157.976 43.577 158.237 43.6218 158.479 43.7219C158.72 43.822 158.937 43.9749 159.111 44.1693C159.286 44.3638 159.415 44.595 159.489 44.8458L159.678 45.4862C160.736 49.0798 165.831 49.0798 166.889 45.4862L167.078 44.8458C167.152 44.595 167.281 44.3638 167.456 44.1693C167.63 43.9749 167.847 43.822 168.088 43.7219C168.33 43.6218 168.591 43.577 168.852 43.5908C169.113 43.6047 169.368 43.6768 169.597 43.8019L170.184 44.1231C173.476 45.9158 177.078 42.3123 175.283 39.0218L174.964 38.4356C174.838 38.206 174.766 37.9512 174.753 37.6901C174.739 37.429 174.783 37.168 174.884 36.9264C174.984 36.6849 175.137 36.4687 175.331 36.2939C175.526 36.1191 175.757 35.99 176.007 35.9161L176.648 35.7274C180.241 34.6694 180.241 29.5742 176.648 28.5162L176.007 28.3275C175.757 28.2536 175.526 28.1245 175.331 27.9497C175.137 27.7749 174.984 27.5587 174.884 27.3171C174.783 27.0756 174.739 26.8146 174.753 26.5535C174.766 26.2924 174.838 26.0376 174.964 25.808L175.285 25.2218C177.078 21.9293 173.474 18.3298 170.184 20.1225L169.597 20.4417C169.368 20.5668 169.113 20.6389 168.852 20.6528C168.591 20.6666 168.33 20.6218 168.088 20.5217C167.847 20.4216 167.63 20.2687 167.456 20.0743C167.281 19.8798 167.152 19.6486 167.078 19.3978L166.889 18.7574ZM161.603 19.3255C162.097 17.6492 164.47 17.6492 164.964 19.3255L165.153 19.9659C165.311 20.5041 165.588 21 165.963 21.4172C166.339 21.8344 166.802 22.1623 167.321 22.377C167.839 22.5916 168.399 22.6875 168.959 22.6577C169.52 22.6278 170.066 22.4729 170.559 22.2044L171.143 21.8832C172.677 21.05 174.355 22.7263 173.52 24.2621L173.201 24.8483C172.933 25.3411 172.778 25.8875 172.749 26.4477C172.719 27.0079 172.815 27.5675 173.03 28.0857C173.245 28.6039 173.573 29.0675 173.99 29.4424C174.407 29.8174 174.903 30.0943 175.441 30.2527L176.08 30.4415C177.756 30.9353 177.756 33.3083 176.08 33.8021L175.439 33.9909C174.901 34.1495 174.405 34.4266 173.988 34.8018C173.571 35.177 173.243 35.6408 173.028 36.1592C172.814 36.6776 172.718 37.2375 172.748 37.7978C172.777 38.3581 172.932 38.9046 173.201 39.3973L173.522 39.9815C174.355 41.5152 172.679 43.1936 171.143 42.3584L170.559 42.0392C170.066 41.7707 169.519 41.6159 168.959 41.5862C168.399 41.5564 167.839 41.6525 167.32 41.8673C166.802 42.0822 166.338 42.4104 165.963 42.8278C165.588 43.2452 165.311 43.7413 165.153 44.2797L164.964 44.9181C164.47 46.5944 162.097 46.5944 161.603 44.9181L161.414 44.2777C161.256 43.7397 160.979 43.2441 160.604 42.8272C160.229 42.4102 159.765 42.0824 159.247 41.8677C158.729 41.6531 158.169 41.5571 157.609 41.5868C157.049 41.6165 156.503 41.7711 156.01 42.0392L155.424 42.3604C153.89 43.1936 152.212 41.5173 153.047 39.9815L153.366 39.3973C153.635 38.9045 153.79 38.3578 153.82 37.7973C153.85 37.2367 153.754 36.6766 153.54 36.1579C153.325 35.6392 152.997 35.1752 152.58 34.7999C152.162 34.4245 151.666 34.1474 151.128 33.9888L150.487 33.8001C148.811 33.3063 148.811 30.9333 150.487 30.4394L151.128 30.2507C151.665 30.092 152.161 29.815 152.577 29.4401C152.994 29.0651 153.322 28.6018 153.536 28.0839C153.751 27.566 153.847 27.0066 153.818 26.4468C153.788 25.887 153.634 25.3409 153.366 24.8483L153.045 24.2621C152.212 22.7283 153.888 21.05 155.424 21.8852L156.01 22.2044C156.503 22.4725 157.049 22.6271 157.609 22.6568C158.169 22.6865 158.729 22.5905 159.247 22.3759C159.765 22.1612 160.229 21.8334 160.604 21.4164C160.979 20.9995 161.256 20.5038 161.414 19.9659L161.603 19.3255Z" fill="white"/>
</g>
<defs>
<radialGradient id="paint0_radial_135_683" cx="0" cy="0" r="1" gradientUnits="userSpaceOnUse" gradientTransform="translate(164.621 34.798) rotate(-149.349) scale(42.0048 42.0048)">
<stop stop-color="#0B2AA6"/>
<stop offset="1" stop-color="#0031F5"/>
</radialGradient>
<clipPath id="clip0_135_683">
<rect width="32.1212" height="32.1212" fill="white" transform="translate(147.222 16.0606)"/>
</clipPath>
</defs>
</svg>
